<svg width="720" height="240" viewBox="0 0 720 240" fill="none" xmlns="http://www.w3.org/2000/svg" role="img" aria-labelledby="title desc">
  <title id="title">Follow the Scheme ligature logo mockup</title>
  <desc id="desc">A monochrome FTS ligature next to the Follow the Scheme wordmark.</desc>
  <rect width="720" height="240" fill="#ffffff"/>
  <g fill="#111111">
    <path d="M87 58c0-13.255 10.745-24 24-24h92c13.255 0 24 10.745 24 24v92c0 13.255-10.745 24-24 24h-92c-13.255 0-24-10.745-24-24V58Zm31 13v72h22v-27h42V96h-42V73h54V53h-56c-11.046 0-20 8.954-20 20Zm88 2h-26v22h26v49c0 17.673 14.327 32 32 32h20v-22h-15c-8.284 0-15-6.716-15-15V95h30V73h-30V49h-22v24Zm-10 91c8.601 8.574 20.178 13 34.734 13 11.596 0 20.999-2.506 28.209-7.518 7.21-5.012 10.815-11.695 10.815-20.05 0-7.017-2.349-12.531-7.048-16.543-4.699-4.011-12.375-7.017-23.029-9.021l-13.632-2.506c-4.072-.78-7.048-1.782-8.927-3.006-1.879-1.225-2.819-3.006-2.819-5.346 0-2.562 1.409-4.622 4.229-6.181 2.819-1.559 6.735-2.339 11.747-2.339 9.241 0 16.289 2.951 21.144 8.854l14.567-13.866c-7.831-9.243-19.03-13.864-33.597-13.864-11.278 0-20.158 2.45-26.642 7.35-6.483 4.9-9.725 11.306-9.725 19.215 0 7.129 2.427 12.726 7.282 16.793 4.856 4.065 12.415 7.044 22.678 8.937l13.161 2.45c4.386.78 7.558 1.81 9.515 3.091 1.958 1.281 2.937 3.119 2.937 5.513 0 2.674-1.644 4.817-4.934 6.432-3.289 1.615-7.832 2.423-13.628 2.423-10.341 0-18.8-3.787-25.377-11.362L196 164Z" opacity=".96"/>
  </g>
  <g fill="#111111">
    <text x="302" y="101" font-family="Inter, Arial, Helvetica, sans-serif" font-size="42" font-weight="760">Follow</text>
    <text x="302" y="145" font-family="Inter, Arial, Helvetica, sans-serif" font-size="42" font-weight="520">the Scheme</text>
    <path d="M304 163h238v10H304z"/>
  </g>
</svg>
